HIERARCHY
ROOT Hips
{
	OFFSET 0.000000 0.000000 0.000000
	CHANNELS 6 Xposition Yposition Zposition Zrotation Yrotation Xrotation 
	JOINT LHipJoint
	{
		OFFSET 0.000000 0.000000 0.000000
		CHANNELS 3 Zrotation Yrotation Xrotation
		JOINT LeftUpLeg
		{
			OFFSET 1.363060 -1.794630 0.839290
			CHANNELS 3 Zrotation Yrotation Xrotation
			JOINT LeftLeg
			{
				OFFSET 2.448110 -6.726130 0.000000
				CHANNELS 3 Zrotation Yrotation Xrotation
				JOINT LeftFoot
				{
					OFFSET 2.562200 -7.039590 0.000000
					CHANNELS 3 Zrotation Yrotation Xrotation
					JOINT LeftToeBase
					{
						OFFSET 0.157640 -0.433110 2.322550
						CHANNELS 3 Zrotation Yrotation Xrotation
						End Site
						{
							OFFSET 0.000000 0.000000 0.000000
						}
					}
				}
			}
		}
	}
	JOINT RHipJoint
	{
		OFFSET 0.000000 0.000000 0.000000
		CHANNELS 3 Zrotation Yrotation Xrotation
		JOINT RightUpLeg
		{
			OFFSET -1.305520 -1.794630 0.839290
			CHANNELS 3 Zrotation Yrotation Xrotation
			JOINT RightLeg
			{
				OFFSET -2.542530 -6.985550 0.000000
				CHANNELS 3 Zrotation Yrotation Xrotation
				JOINT RightFoot
				{
					OFFSET -2.568260 -7.056230 0.000000
					CHANNELS 3 Zrotation Yrotation Xrotation
					JOINT RightToeBase
					{
						OFFSET -0.164730 -0.452590 2.363150
						CHANNELS 3 Zrotation Yrotation Xrotation
						End Site
						{
							OFFSET 0.000000 0.000000 0.000000
						}
					}
				}
			}
		}
	}
	JOINT LowerBack
	{
		OFFSET 0.000000 0.000000 0.000000
		CHANNELS 3 Zrotation Yrotation Xrotation
		JOINT Spine
		{
			OFFSET 0.028270 2.035590 -0.193380
			CHANNELS 3 Zrotation Yrotation Xrotation
			JOINT Spine1
			{
				OFFSET 0.056720 2.048850 -0.042750
				CHANNELS 3 Zrotation Yrotation Xrotation
				JOINT Neck
				{
					OFFSET 0.000000 0.000000 0.000000
					CHANNELS 3 Zrotation Yrotation Xrotation
					JOINT Neck1
					{
						OFFSET -0.054170 1.746240 0.172020
						CHANNELS 3 Zrotation Yrotation Xrotation
						JOINT Head
						{
							OFFSET 0.104070 1.761360 -0.123970
							CHANNELS 3 Zrotation Yrotation Xrotation
							End Site
							{
								OFFSET 0.000000 0.000000 0.000000
							}
						}
					}
				}
				JOINT LeftShoulder
				{
					OFFSET 0.000000 0.000000 0.000000
					CHANNELS 3 Zrotation Yrotation Xrotation
					JOINT LeftArm
					{
						OFFSET 3.362410 1.200890 -0.311210
						CHANNELS 3 Zrotation Yrotation Xrotation
						JOINT LeftForeArm
						{
							OFFSET 4.983000 -0.000000 -0.000000
							CHANNELS 3 Zrotation Yrotation Xrotation
							JOINT LeftHand
							{
								OFFSET 3.483560 -0.000000 -0.000000
								CHANNELS 3 Zrotation Yrotation Xrotation
								JOINT LeftFingerBase
								{
									OFFSET 0.000000 0.000000 0.000000
									CHANNELS 3 Zrotation Yrotation Xrotation
									JOINT LeftHandIndex1
									{
										OFFSET 0.715260 -0.000000 -0.000000
										CHANNELS 3 Zrotation Yrotation Xrotation
										End Site
										{
											OFFSET 0.000000 0.000000 0.000000
										}
									}
								}
								JOINT LThumb
								{
									OFFSET 0.000000 0.000000 0.000000
									CHANNELS 3 Zrotation Yrotation Xrotation
									End Site
									{
										OFFSET 0.000000 0.000000 0.000000
									}
								}
							}
						}
					}
				}
				JOINT RightShoulder
				{
					OFFSET 0.000000 0.000000 0.000000
					CHANNELS 3 Zrotation Yrotation Xrotation
					JOINT RightArm
					{
						OFFSET -3.136600 1.374050 -0.404650
						CHANNELS 3 Zrotation Yrotation Xrotation
						JOINT RightForeArm
						{
							OFFSET -5.241900 -0.000000 -0.000000
							CHANNELS 3 Zrotation Yrotation Xrotation
							JOINT RightHand
							{
								OFFSET -3.444170 -0.000000 -0.000000
								CHANNELS 3 Zrotation Yrotation Xrotation
								JOINT RightFingerBase
								{
									OFFSET 0.000000 0.000000 0.000000
									CHANNELS 3 Zrotation Yrotation Xrotation
									JOINT RightHandIndex1
									{
										OFFSET -0.622530 -0.000000 -0.000000
										CHANNELS 3 Zrotation Yrotation Xrotation
										End Site
										{
											OFFSET 0.000000 0.000000 0.000000
										}
									}
								}
								JOINT RThumb
								{
									OFFSET 0.000000 0.000000 0.000000
									CHANNELS 3 Zrotation Yrotation Xrotation
									End Site
									{
										OFFSET 0.000000 0.000000 0.000000
									}
								}
							}
						}
					}
				}
			}
		}
	}
}
MOTION
Frames: 12
Frame Time: 0.008333
16.062393 12.648213 2.998557 85.644316 -87.643480 1.951527 -9.121575 -0.492155 3.402373 -4.631068 -16.968413 -134.136476 -0.244700 9.889311 81.067439 4.089076 5.271974 -32.904771 -3.154101 0.000000 -44.460900 10.038956 2.144156 4.871294 0.925492 7.272628 -136.351387 -0.240428 -11.526385 83.073345 -2.643041 -0.199225 -30.830220 1.413099 0.000000 -60.820200 1.782591 -2.422346 -1.901230 -0.563570 -2.616161 -2.796145 -4.655707 -2.836211 -0.024593 10.708509 -13.515717 -14.297607 -1.795127 0.022749 -3.356740 0.000000 0.000000 0.000000 -7.197251 13.677454 4.799515 -67.870939 42.826975 -1.425318 -0.214956 -19.771161 -0.000105 -2.091420 -3.359098 0.065231 0.066379 0.102179 -0.000000 0.000000 0.000000 0.000000 0.000000 0.000000 0.000000 19.055678 -11.775174 4.702291 59.797508 -24.952791 -24.554119 -0.283471 7.118569 -0.004615 -0.857319 15.365540 -0.117741 -0.001746 -0.295957 0.000000 0.000000 0.000000 0.000000 0.000000 0.000000 0.000000 
16.027958 12.629370 2.999194 85.201789 -87.701220 2.456724 -9.127020 -0.511466 3.408861 -4.566897 -16.884972 -134.221298 -0.185052 9.908580 81.374090 4.116895 5.346255 -33.083818 -3.205200 -0.000000 -44.679499 10.029722 2.159098 4.865197 0.962565 7.314986 -136.352297 -0.279784 -11.540784 83.325553 -2.666666 -0.223233 -31.017737 1.438200 0.000000 -60.973900 1.818926 -2.413475 -1.913789 -0.558445 -2.609953 -2.803566 -4.671353 -2.831282 -0.039413 10.748853 -13.542279 -14.332444 -1.806825 0.022332 -3.370608 0.000000 0.000000 0.000000 -7.295082 13.703390 4.805095 -67.888155 42.417832 -1.616004 -0.198031 -19.851964 -0.000165 -2.079436 -3.392930 0.065531 0.067265 0.103647 -0.000000 0.000000 0.000000 0.000000 0.000000 0.000000 0.000000 19.150044 -11.774235 4.703335 59.817779 -24.612401 -24.238122 -0.288976 7.408799 -0.004948 -1.026348 15.296494 -0.140642 0.000280 -0.297308 0.000000 0.000000 0.000000 0.000000 0.000000 0.000000 0.000000 
15.992962 12.611125 2.999940 84.651227 -87.768715 3.057001 -9.132428 -0.531634 3.414817 -4.501183 -16.789739 -134.291259 -0.121912 9.924864 81.683103 4.147853 5.440018 -33.259171 -3.261200 0.000000 -44.892500 10.016902 2.175221 4.854908 1.015709 7.366628 -136.324946 -0.317041 -11.553036 83.572652 -2.693934 -0.255080 -31.219417 1.467000 -0.000000 -61.104400 1.861125 -2.404414 -1.921643 -0.552158 -2.603549 -2.809397 -4.689565 -2.826242 -0.053665 10.793678 -13.562096 -14.369141 -1.820882 0.021706 -3.385127 0.000000 0.000000 0.000000 -7.402652 13.732364 4.810394 -67.895980 41.970198 -1.807821 -0.179248 -19.918656 -0.000239 -2.051477 -3.413460 0.065132 0.068027 0.104917 -0.000000 0.000000 0.000000 0.000000 0.000000 0.000000 0.000000 19.255447 -11.767257 4.704996 59.822651 -24.223219 -23.935110 -0.294662 7.647808 -0.005285 -1.188575 15.247086 -0.162543 0.002209 -0.298721 0.000000 0.000000 0.000000 0.000000 0.000000 0.000000 0.000000 
15.957282 12.593730 3.000959 83.923092 -87.850271 3.820185 -9.138808 -0.552674 3.421315 -4.429533 -16.678000 -134.348975 -0.055034 9.938106 81.993958 4.181368 5.551745 -33.429878 -3.321400 -0.000000 -45.094300 9.999298 2.192683 4.840744 1.084668 7.431691 -136.266898 -0.351898 -11.562422 83.812539 -2.725629 -0.297581 -31.435317 1.500300 -0.000000 -61.210700 1.914244 -2.393435 -1.926376 -0.543338 -2.595427 -2.814609 -4.711351 -2.819646 -0.067966 10.841236 -13.570255 -14.406597 -1.838367 0.020736 -3.399821 0.000000 0.000000 0.000000 -7.523226 13.761789 4.815032 -67.892551 41.484285 -1.994048 -0.158644 -19.973747 -0.000337 -2.003982 -3.424549 0.063931 0.068624 0.106028 -0.000000 0.000000 0.000000 0.000000 0.000000 0.000000 0.000000 19.372073 -11.748160 4.706875 59.814507 -23.795223 -23.638082 -0.299492 7.850717 -0.005615 -1.344947 15.214388 -0.183846 0.004092 -0.300226 0.000000 0.000000 0.000000 0.000000 0.000000 0.000000 0.000000 
15.920677 12.577268 3.002227 83.004064 -87.944190 4.761870 -9.146835 -0.574425 3.428766 -4.352140 -16.550571 -134.392315 0.015024 9.947943 82.304687 4.216497 5.678190 -33.594355 -3.384900 -0.000000 -45.280200 9.976901 2.212080 4.823643 1.164979 7.507497 -136.179078 -0.384745 -11.568374 84.044866 -2.761524 -0.351053 -31.663477 1.538200 -0.000001 -61.289000 1.978447 -2.380350 -1.929417 -0.531898 -2.585481 -2.819602 -4.736521 -2.811404 -0.082049 10.890649 -13.569270 -14.444924 -1.858982 0.019456 -3.414716 0.000000 0.000000 0.000000 -7.656781 13.791004 4.818639 -67.873008 40.953710 -2.160368 -0.136254 -20.016942 -0.000462 -1.932511 -3.427655 0.061831 0.068999 0.107020 -0.000000 0.000000 0.000000 0.000000 0.000000 0.000000 0.000000 19.498364 -11.720033 4.709125 59.792905 -23.318980 -23.344841 -0.303450 8.005467 -0.005937 -1.495364 15.214164 -0.204645 0.005929 -0.301959 0.000000 0.000000 0.000000 0.000000 0.000000 0.000000 0.000000 
15.883334 12.561980 3.003413 82.046981 -88.036270 5.728226 -9.154629 -0.596456 3.436436 -4.276579 -16.422252 -134.415093 0.086208 9.953950 82.610176 4.252822 5.816304 -33.751650 -3.450900 0.000000 -45.446600 9.952381 2.234255 4.806236 1.242539 7.576709 -136.068538 -0.417682 -11.570503 84.271947 -2.800052 -0.413479 -31.898892 1.579399 0.000000 -61.336100 2.044651 -2.369337 -1.932975 -0.520482 -2.577810 -2.824907 -4.764350 -2.805560 -0.095114 10.944470 -13.559666 -14.484557 -1.882911 0.017857 -3.429818 0.000000 0.000000 0.000000 -7.798095 13.819610 4.821462 -67.831093 40.373078 -2.294975 -0.113064 -20.052662 -0.000608 -1.837805 -3.419293 0.058731 0.069109 0.107878 -0.000000 0.000000 0.000000 0.000000 0.000000 0.000000 0.000000 19.638014 -11.685720 4.711152 59.759848 -22.789231 -23.051813 -0.306509 8.107579 -0.006254 -1.641113 15.255363 -0.225347 0.007734 -0.303970 0.000000 0.000000 0.000000 0.000000 0.000000 0.000000 0.000000 
15.845101 12.548081 3.004831 80.903856 -88.136700 6.867321 -9.164536 -0.619874 3.445624 -4.193687 -16.279743 -134.419233 0.159255 9.955775 82.911162 4.288305 5.959884 -33.900379 -3.517000 0.000000 -45.601200 9.923088 2.259625 4.787383 1.320952 7.649312 -135.928120 -0.450019 -11.567735 84.491007 -2.840307 -0.484243 -32.134444 1.623200 -0.000000 -61.369000 2.120666 -2.355857 -1.937056 -0.506572 -2.568024 -2.830836 -4.794561 -2.797778 -0.107667 10.998528 -13.545694 -14.526762 -1.909304 0.016044 -3.445590 0.000000 0.000000 0.000000 -7.949461 13.849094 4.823059 -67.763601 39.730370 -2.385731 -0.088913 -20.078430 -0.000789 -1.715409 -3.408238 0.054830 0.068911 0.108728 -0.000000 0.000000 0.000000 0.000000 0.000000 0.000000 0.000000 19.783612 -11.646877 4.713999 59.718131 -22.201757 -22.746507 -0.308438 8.162577 -0.006570 -1.790169 15.334276 -0.247247 0.009628 -0.306268 0.000000 0.000000 0.000000 0.000000 0.000000 0.000000 0.000000 
15.805959 12.535752 3.005855 79.846052 -88.224671 7.907821 -9.172886 -0.644492 3.454964 -4.115340 -16.144101 -134.393461 0.231145 9.952524 83.200325 4.322482 6.105079 -34.039070 -3.582400 -0.000000 -45.749100 9.894096 2.288657 4.770887 1.381917 7.701131 -135.768588 -0.484664 -11.559959 84.705357 -2.879680 -0.559582 -32.361614 1.667300 -0.000000 -61.397400 2.192774 -2.346602 -1.944620 -0.494228 -2.562682 -2.838318 -4.826254 -2.794534 -0.119530 11.057675 -13.521595 -14.571693 -1.939578 0.013883 -3.461973 0.000000 0.000000 0.000000 -8.104219 13.878920 4.824379 -67.662915 39.022214 -2.428195 -0.065354 -20.103761 -0.000984 -1.572607 -3.388026 0.050130 0.068420 0.109534 -0.000000 0.000000 0.000000 0.000000 0.000000 0.000000 0.000000 19.945435 -11.599975 4.716361 59.672811 -21.567834 -22.419036 -0.309263 8.193969 -0.006899 -1.948956 15.430275 -0.271147 0.011688 -0.308683 0.000000 0.000000 0.000000 0.000000 0.000000 0.000000 0.000000 
15.765556 12.525398 3.006784 78.741400 -88.309743 8.978402 -9.181329 -0.671791 3.465043 -4.033273 -16.002079 -134.337219 0.302520 9.943629 83.477669 4.353607 6.246932 -34.166680 -3.644900 0.000000 -45.905699 9.862681 2.321714 4.755016 1.429593 7.742115 -135.580661 -0.520879 -11.545876 84.911483 -2.917211 -0.639237 -32.572759 1.710900 -0.000000 -61.440801 2.266816 -2.337290 -1.954196 -0.481340 -2.557505 -2.847072 -4.858432 -2.791555 -0.130869 11.117722 -13.493321 -14.621671 -1.972364 0.011550 -3.479785 0.000000 0.000000 0.000000 -8.262455 13.912697 4.825314 -67.527453 38.232646 -2.413960 -0.042644 -20.123992 -0.001200 -1.409305 -3.364666 0.044830 0.067628 0.110387 -0.000000 0.000000 0.000000 0.000000 0.000000 0.000000 0.000000 20.114605 -11.548302 4.719718 59.628179 -20.878333 -22.060276 -0.309121 8.205517 -0.007249 -2.126056 15.529082 -0.297847 0.014032 -0.311097 0.000000 0.000000 0.000000 0.000000 0.000000 0.000000 0.000000 
15.724127 12.517295 3.007333 77.690817 -88.385652 9.976122 -9.188170 -0.702497 3.475180 -3.950607 -15.858710 -134.242363 0.372133 9.928047 83.739015 4.381110 6.383242 -34.281890 -3.703899 0.000000 -46.084400 9.830630 2.358793 4.740825 1.457817 7.765225 -135.363912 -0.559582 -11.524745 85.108528 -2.951515 -0.722241 -32.760988 1.752700 -0.000000 -61.519800 2.337682 -2.329616 -1.966304 -0.469209 -2.554077 -2.857460 -4.889996 -2.790377 -0.142086 11.179235 -13.456979 -14.677648 -2.008230 0.009006 -3.499356 0.000000 0.000000 0.000000 -8.420591 13.951240 4.826493 -67.353031 37.353341 -2.342616 -0.021790 -20.142592 -0.001433 -1.229405 -3.339509 0.039030 0.066535 0.111337 -0.000000 0.000000 0.000000 0.000000 0.000000 0.000000 0.000000 20.293504 -11.487565 4.724188 59.589429 -20.139638 -21.664603 -0.308296 8.217197 -0.007641 -2.328781 15.600843 -0.327947 0.016746 -0.313258 0.000000 0.000000 0.000000 0.000000 0.000000 0.000000 0.000000 
15.681445 12.511672 3.007451 76.684501 -88.453861 10.908520 -9.193244 -0.737805 3.484707 -3.866218 -15.709658 -134.102584 0.439651 9.904884 83.981866 4.404498 6.513139 -34.384030 -3.758600 -0.000000 -46.299400 9.797371 2.400008 4.727092 1.468102 7.772412 -135.108041 -0.600371 -11.494999 85.292772 -2.982517 -0.810521 -32.923057 1.792700 -0.000000 -61.649500 2.404459 -2.322458 -1.978689 -0.457770 -2.551096 -2.868721 -4.919424 -2.789636 -0.153331 11.240644 -13.414674 -14.741554 -2.046558 0.006352 -3.521475 0.000000 0.000000 0.000000 -8.574245 13.998044 4.828451 -67.139612 36.368509 -2.213091 -0.003211 -20.153132 -0.001685 -1.034405 -3.318059 0.032930 0.065141 0.112479 -0.000000 0.000000 0.000000 0.000000 0.000000 0.000000 0.000000 20.479346 -11.418370 4.730712 59.560140 -19.346667 -21.222319 -0.307493 8.237705 -0.008100 -2.567511 15.618107 -0.362247 0.019948 -0.314925 0.000000 0.000000 0.000000 0.000000 0.000000 0.000000 0.000000 
15.637286 12.508913 3.006848 75.835844 -88.507995 11.658063 -9.194319 -0.777558 3.493338 -3.784455 -15.561434 -133.910401 0.503779 9.873157 84.200854 4.424520 6.639230 -34.472088 -3.809800 0.000001 -46.561400 9.765141 2.444646 4.715668 1.455355 7.758963 -134.812247 -0.643511 -11.455852 85.461258 -3.010851 -0.907247 -33.059108 1.831700 0.000000 -61.834400 2.462095 -2.318329 -1.993468 -0.448550 -2.551077 -2.882228 -4.946778 -2.791863 -0.165965 11.302372 -13.349622 -14.811693 -2.089879 0.003301 -3.545517 0.000000 0.000000 0.000000 -8.726284 14.046619 4.831850 -66.885736 35.285201 -2.044057 0.011590 -20.167846 -0.001932 -0.835915 -3.292791 0.026731 0.063538 0.113739 -0.000000 0.000000 0.000000 0.000000 0.000000 0.000000 0.000000 20.678465 -11.323923 4.739126 59.547737 -18.519466 -20.761765 -0.307181 8.294720 -0.008633 -2.837140 15.541603 -0.398648 0.023546 -0.315768 0.000000 0.000000 0.000000 0.000000 0.000000 0.000000 0.000000 
